<?xml version="1.0" standalone="no"?>
<!DOCTYPE svg PUBLIC "-//W3C//DTD SVG 20010904//EN"
 "http://www.w3.org/TR/2001/REC-SVG-20010904/DTD/svg10.dtd">
<svg version="1.0" xmlns="http://www.w3.org/2000/svg"
 width="700.000000pt" height="700.000000pt" viewBox="0 0 700.000000 700.000000"
 preserveAspectRatio="xMidYMid meet">
<metadata>
Created by potrace 1.14, written by Peter Selinger 2001-2017
</metadata>
<g transform="translate(0.000000,700.000000) scale(0.100000,-0.100000)"
fill="#000000" stroke="none">
<path d="M1087 6893 c-73 -39 -117 -86 -136 -145 -7 -21 -14 -104 -16 -185 -3
-82 -4 -1361 -4 -2843 0 -3543 0 -3464 8 -3470 3 -3 19 -24 35 -47 30 -45 70
-79 126 -108 33 -17 141 -18 2383 -22 l2348 -4 62 30 c35 17 78 45 96 63 58
56 68 94 71 268 7 432 9 1126 9 3150 0 2205 -4 2987 -14 3109 -8 99 -50 156
-157 211 l-57 30 -2343 0 -2343 -1 -68 -36z m4643 -3393 l-1 -3087 -2229 1
-2230 0 0 3086 0 3086 2230 0 2230 0 0 -3086z"/>
<path d="M1692 6185 c-11 -16 -24 -55 -28 -85 -4 -30 -8 -608 -8 -1284 l-1
-1229 35 -36 35 -36 1772 0 1773 0 36 36 37 37 -3 1214 c-1 667 -3 1231 -5
1253 -1 22 -3 52 -4 66 -1 14 -11 41 -24 60 l-23 34 -1786 0 -1786 0 -20 -30z
m2520 -252 c58 -34 55 -58 -23 -214 -38 -76 -104 -203 -145 -281 -42 -79 -99
-186 -127 -238 -56 -106 -96 -180 -137 -255 -15 -27 -46 -86 -70 -130 -24 -44
-79 -145 -123 -225 -44 -80 -92 -167 -107 -195 -182 -335 -307 -546 -340 -577
-34 -32 -29 -31 -204 -29 -101 0 -136 4 -165 18 -56 28 -53 52 24 206 97 190
211 408 267 510 26 48 48 89 48 91 0 2 17 35 38 73 22 37 63 113 92 168 29 55
65 123 80 150 15 28 46 86 70 130 289 539 423 773 451 791 58 35 314 40 371 7z
m-1256 -38 c106 -51 203 -148 256 -257 45 -92 55 -151 47 -278 -4 -83 -10
-105 -42 -170 -56 -115 -160 -217 -282 -276 -57 -28 -66 -29 -200 -29 l-140 0
-75 36 c-195 94 -305 250 -317 451 -16 250 108 443 347 542 62 25 71 27 196
22 125 -4 133 -5 210 -41z m1376 -1039 c37 -3 92 -15 122 -27 111 -41 233
-153 298 -273 l33 -61 0 -160 c0 -175 -6 -201 -68 -294 -76 -113 -215 -213
-332 -239 -58 -13 -193 -6 -265 12 -134 35 -246 123 -320 252 -51 89 -68 158
-64 264 4 143 30 227 97 313 95 122 221 197 362 213 27 4 52 8 54 10 2 2 7 2
10 0 3 -2 36 -6 73 -10z"/>
<path d="M2675 5575 c-131 -34 -163 -208 -55 -299 100 -84 249 -34 280 93 13
56 4 103 -30 151 -41 57 -109 77 -195 55z"/>
<path d="M4195 4488 c-121 -66 -142 -204 -45 -292 75 -67 187 -55 254 27 28
35 31 46 31 107 0 61 -3 72 -31 106 -16 21 -46 43 -65 50 -43 16 -118 17 -144
2z"/>
<path d="M1823 2980 c-55 -8 -81 -32 -89 -86 -3 -23 -7 -186 -8 -361 l-1 -318
37 -38 38 -37 343 3 c352 3 363 4 410 45 16 15 18 41 17 359 -1 189 -5 355 -9
370 -4 15 -19 36 -34 46 -25 19 -44 20 -344 21 -175 1 -337 -1 -360 -4z"/>
<path d="M3205 2982 c-82 -7 -93 -12 -110 -49 -16 -32 -18 -78 -21 -357 -3
-349 0 -373 49 -410 28 -20 39 -21 366 -21 412 1 412 1 428 107 8 54 8 496 0
603 -6 69 -10 83 -32 103 -16 13 -40 22 -63 23 -83 3 -589 4 -617 1z"/>
<path d="M4535 2979 c-27 -3 -58 -9 -67 -13 -36 -16 -40 -58 -40 -524 0 -213
1 -235 18 -254 11 -11 30 -25 44 -31 15 -6 156 -11 366 -13 l342 -2 36 36 37
35 -1 346 c-2 270 -5 351 -15 372 -26 49 -54 53 -375 54 -162 0 -317 -3 -345
-6z"/>
<path d="M1819 1642 c-14 -2 -41 -19 -60 -38 l-33 -35 1 -339 c1 -356 4 -383
45 -409 30 -19 55 -20 373 -20 397 0 396 0 414 65 6 21 10 185 11 379 l0 343
-33 21 c-19 12 -54 24 -78 27 -47 6 -596 11 -640 6z"/>
<path d="M3286 1643 c-1 -1 -31 -3 -66 -4 -82 -3 -102 -12 -128 -58 -21 -37
-21 -48 -17 -357 4 -338 6 -369 33 -396 26 -25 62 -28 382 -28 363 0 390 3
411 42 15 28 22 150 22 403 1 257 -2 301 -20 337 -20 41 -44 49 -161 54 -108
6 -452 11 -456 7z"/>
<path d="M4615 1640 c-92 -4 -116 -9 -147 -28 -44 -27 -40 22 -38 -432 0 -304
2 -326 31 -355 19 -19 33 -20 384 -20 l365 0 27 28 28 27 3 356 3 355 -34 35
-34 36 -239 1 c-132 1 -288 0 -349 -3z"/>
</g>
</svg>
