<?xml version="1.0" encoding="utf-8"?>
<!DOCTYPE svg PUBLIC "-//W3C//DTD SVG 1.1//EN" "http://www.w3.org/Graphics/SVG/1.1/DTD/svg11.dtd">
<svg version="1.1" xmlns="http://www.w3.org/2000/svg" xmlns:xlink="http://www.w3.org/1999/xlink" x="0px" y="0px"
fill="black" viewBox="0 0 1000 1000" width="120px" height="120px" enable-background="new 0 0 1000 1000" xml:space="preserve">
<g><g transform="translate(0.000000,511.000000) scale(0.100000,-0.100000)">
<path d="M1555.6,4961c-114.3-53.1-175.6-124.5-210.3-247c-18.4-61.3-22.5-1237.3-18.4-4659.1l6.1-4575.4l61.2-87.8c34.7-47,98-106.2,142.9-128.6l81.7-42.9l3356.5-6.1L8332-4790l106.2,49c110.3,51,171.5,118.4,210.3,234.8c34.7,100,34.7,9132.4,0,9232.4c-38.8,116.4-100,183.8-208.3,234.8l-104.1,49H4997.9H1659.8L1555.6,4961z M8182.9,110v-4410h-3185h-3185V110v4410h3185h3185V110z"/>
<path d="M2407,3936.1c-42.9-55.1-42.9-63.3-42.9-1880.4V230.5l51-49l49-51h2533.7h2533.7l49,51l51,49v1825.2c0,1817.1,0,1825.3-42.9,1880.4l-40.8,53.1H4997.9h-2550L2407,3936.1z M5992.2,3599.2c67.4-24.5,87.8-53.1,87.8-118.4c0-69.4-1496.6-2835.9-1574.1-2905.3c-57.2-55.1-67.4-57.2-289.9-57.2c-257.3,0-320.5,22.5-320.5,116.4c0,32.7,296,604.3,716.6,1382.2C5459.3,3589,5436.9,3550.2,5516.5,3589C5592,3625.8,5904.4,3633.9,5992.2,3599.2z M4232.3,3529.8c159.2-77.6,283.8-206.2,363.4-373.6c59.2-122.5,65.3-155.2,65.3-320.5c0-155.2-10.2-202.1-55.1-300.1c-75.5-163.3-218.4-308.3-381.8-390c-120.5-59.2-151.1-65.3-318.5-65.3c-163.3,0-198,6.1-320.5,65.3c-167.4,79.6-296,204.2-373.6,363.4c-81.7,167.4-96,416.5-30.6,588c79.6,214.4,226.6,365.5,441,455.3c104.1,42.9,145,49,306.2,42.9C4081.2,3591,4132.2,3578.8,4232.3,3529.8z M6382.2,2004.7c142.9-53.1,324.6-224.6,402.2-377.7c57.2-108.2,61.3-136.8,61.3-332.8c0-191.9-6.1-226.6-55.1-326.7c-73.5-151.1-220.5-294-381.8-373.6c-116.4-57.2-149-63.3-306.3-63.3c-318.5,2-561.5,151.1-700.3,432.8c-61.3,124.5-67.4,153.1-67.4,320.5c2,224.6,49,361.4,181.7,510.4C5728.8,2039.4,6067.8,2121,6382.2,2004.7z"/>
<path d="M3768.8,3058.2c-122.5-65.3-159.2-263.4-67.4-371.6c104.1-124.5,269.5-134.8,379.8-26.5c155.2,157.2,47,432.8-171.5,430.8C3862.7,3088.8,3799.4,3076.5,3768.8,3058.2z"/>
<path d="M5928.9,1477.9c-116.4-104.1-122.5-255.2-12.2-365.4c204.2-202.1,530.8,44.9,400.2,302.2c-42.9,81.7-120.4,124.5-224.6,124.5C6018.7,1539.2,5986.1,1526.9,5928.9,1477.9z"/>
<path d="M2511.2-672c-42.9-47-44.9-61.3-44.9-553.3v-504.3l51-49l49-51h498.2c473.7,0,502.3,2,553.3,42.9l53.1,40.8v520.6c0,492.1-2.1,520.6-40.8,559.4c-38.8,38.8-67.4,40.8-557.4,40.8C2558.1-625,2554-625,2511.2-672z"/>
<path d="M4434.4-667.9c-34.7-38.8-38.8-83.7-44.9-514.5c-4.1-259.3,0-494.1,6.1-518.6c6.1-26.5,28.6-65.3,51-87.8c38.8-38.8,69.4-40.8,530.8-40.8c318.5,0,506.3,8.2,539,22.5c87.8,40.8,96,100,89.8,614.6c-6.1,441-10.2,485.9-44.9,524.7c-36.7,40.8-57.2,42.9-563.5,42.9C4491.6-625,4471.2-627,4434.4-667.9z"/>
<path d="M6365.8-665.8c-38.8-38.8-40.8-67.4-40.8-559.4v-520.6l53.1-40.8c51-40.8,79.6-42.9,553.3-42.9h498.2l49,51l51,49v508.4c0,504.3,0,508.4-47,551.2c-47,42.9-61.3,44.9-561.5,44.9C6433.2-625,6404.6-627,6365.8-665.8z"/>
<path d="M2517.3-2595.2l-51-49v-508.4c0-504.3,0-508.4,47-551.3c47-42.9,61.3-44.9,561.5-44.9c488,0,516.6,2,555.3,40.8c38.8,38.8,40.8,67.4,40.8,559.4v520.6l-53.1,40.8c-51,40.8-79.6,42.9-553.3,42.9h-498.2L2517.3-2595.2z"/>
<path d="M4446.7-2585c-22.5-22.5-44.9-61.3-51-87.8c-6.1-24.5-10.2-259.3-6.1-518.6c6.1-430.8,10.2-475.7,44.9-514.5c36.8-40.8,57.2-42.9,563.5-42.9c506.3,0,526.8,2,563.5,42.9c34.7,38.8,38.8,83.7,44.9,524.7c6.1,514.5-2,573.7-89.8,614.6c-32.7,14.3-220.5,22.5-539,22.5C4516.1-2544.2,4485.4-2546.2,4446.7-2585z"/>
<path d="M6378.1-2587l-53.1-40.8v-520.6c0-492,2-520.6,40.8-559.4c38.8-38.8,67.4-40.8,557.4-40.8c514.5,0,518.6,0,561.5,47c42.9,47,44.9,61.3,44.9,553.3v504.3l-51,49l-49,51h-498.2C6457.7-2544.2,6429.1-2546.2,6378.1-2587z"/>
</g></g>
</svg>
